<svg width="32" height="32" viewBox="0 0 32 32" fill="none" xmlns="http://www.w3.org/2000/svg">
  <rect width="32" height="32" rx="6" fill="#8B4513"/>
  <path d="M8 12C8 10.8954 8.89543 10 10 10H18C19.1046 10 20 10.8954 20 12V20C20 21.1046 19.1046 22 18 22H10C8.89543 22 8 21.1046 8 20V12Z" fill="#D2691E"/>
  <path d="M10 12H18V14H10V12Z" fill="#F4A460"/>
  <circle cx="14" cy="17" r="1.5" fill="#8B4513"/>
  <path d="M21 13C21.5523 13 22 13.4477 22 14V16C22 16.5523 21.5523 17 21 17H20V13H21Z" fill="#CD853F"/>
  <path d="M12 8C12 8 13 6 16 6C19 6 20 8 20 8" stroke="#8B4513" stroke-width="1.5" stroke-linecap="round"/>
</svg>